<svg xmlns="http://www.w3.org/2000/svg" width="512" height="512" style="" viewBox="0 0 512 512" data-svgdocument="" id="_469y_8l2lf9Q1mj_DHaI_" class="fl-svgdocument" x="0" y="0" overflow="hidden" data-bbox="117.05132444787063 95.56571576977251 277.89735110425875 320.868568460455">
  <defs id="_jlJwo_tRGMdgYUkBjWihb" transform="matrix(1.1551120281219482, 0, 0, 1.1551120281219482, -55.733123779296875, 73.71556854248047)" />
  <g id="_VhszvOFyKMW0SGS_kieQD" transform="matrix(1.76433265209198, 0, 0, 1.76433265209198, -196.17294151864093, -79.34857350688492)" fill="#0e1e40">
    <path id="_w5VfJMYMvW54Lz4D9PC_5" d="m 25.672 1035.8717 a 0.50004997 0.4999148 0 0 0 -0.4473 0.6697 c 1.3248 3.8683 0.095 8.1465 -3.0801 10.7236 -3.1751 2.5771 -7.6162 2.8992 -11.1308 0.8084 -3.5147 -2.0907 -5.3487 -6.146 -4.5977 -10.1652 a 0.50063845 0.50050313 0 0 0 -0.9843 -0.1835 c -0.8275 4.4279 1.1982 8.9045 5.0703 11.2079 3.872 2.3033 8.7754 1.9487 12.2734 -0.8904 3.498 -2.8392 4.854 -7.5632 3.3945 -11.8249 a 0.50004997 0.4999148 0 0 0 -0.498 -0.3456 z" fill="#0e1e40" transform="matrix(6.7826762199401855, 0, 0, 6.7826762199401855, 150.21359252929688, -6847.21044921875)" color="rgb(0, 0, 0)" text-decoration="none solid rgb(0, 0, 0)" letter-spacing="normal" word-spacing="normal" direction="ltr" writing-mode="lr-tb" baseline-shift="baseline" text-anchor="start" clip-rule="nonzero" display="inline" overflow="visible" visibility="visible" opacity="1" color-interpolation="srgb" color-interpolation-filters="linearrgb" fill-opacity="1" fill-rule="nonzero" stroke="none" stroke-width="1" stroke-linecap="round" stroke-linejoin="round" stroke-miterlimit="4" stroke-dasharray="none" stroke-dashoffset="0" stroke-opacity="1" color-rendering="auto" image-rendering="auto" shape-rendering="auto" text-rendering="auto" style="font: medium sans-serif; text-indent: 0px; text-align: start; text-transform: none; white-space: normal; isolation: auto; mix-blend-mode: normal;" />
    <path id="_G2KTZoLS2N0Lt4IxG2Glj" d="m 17.0978 1038.3046 a 0.50005 0.49991483 0 0 0 -0.022 0.9959 c 2.7081 0.3333 5.0294 1.8961 6.1738 4.1199 a 0.50005 0.49991483 0 1 0 0.8887 -0.4569 c -1.3083 -2.5422 -3.9261 -4.2838 -6.9414 -4.655 a 0.50005 0.49991483 0 0 0 -0.1 0 z" fill="#0e1e40" transform="matrix(-6.6369036159498105, -1.3986449657006876, 1.3986449657006876, -6.6369036159498105, -1088.1799640577706, 7166.051603172952)" color="rgb(0, 0, 0)" text-decoration="none solid rgb(0, 0, 0)" letter-spacing="normal" word-spacing="normal" direction="ltr" writing-mode="lr-tb" baseline-shift="baseline" text-anchor="start" clip-rule="nonzero" display="inline" overflow="visible" visibility="visible" opacity="1" color-interpolation="srgb" color-interpolation-filters="linearrgb" fill-opacity="1" fill-rule="nonzero" stroke="none" stroke-width="1" stroke-linecap="round" stroke-linejoin="round" stroke-miterlimit="4" stroke-dasharray="none" stroke-dashoffset="0" stroke-opacity="1" color-rendering="auto" image-rendering="auto" shape-rendering="auto" text-rendering="auto" style="font: medium sans-serif; text-indent: 0px; text-align: start; text-transform: none; white-space: normal; isolation: auto; mix-blend-mode: normal;" />
    <path id="_YhHzF7fi1cfGJKVtDrjvV" d="m 21.8771 1030.3634 c -0.6751 0.028 -1.3421 0.2824 -1.875 0.7576 a 0.5000553 0.49992013 0 1 0 0.666 0.7459 c 0.7143 -0.637 1.7708 -0.6816 2.5351 -0.1055 0.7643 0.5762 1.0138 1.6044 0.5977 2.4661 -0.4161 0.8618 -1.3761 1.306 -2.3027 1.0662 -0.9267 -0.2398 -1.5506 -1.0928 -1.4961 -2.0483 a 0.50004997 0.4999148 0 1 0 -0.9981 -0.057 c -0.081 1.4254 0.8616 2.7156 2.2442 3.0734 1.3825 0.3577 2.8323 -0.3134 3.4531 -1.5992 0.6208 -1.2858 0.2438 -2.8386 -0.8965 -3.6982 -0.5702 -0.4299 -1.2527 -0.6292 -1.9277 -0.6014 z" fill="#0e1e40" transform="matrix(6.7826762199401855, 0, 0, 6.7826762199401855, 149.4613800048828, -6849.5830078125)" color="rgb(0, 0, 0)" text-decoration="none solid rgb(0, 0, 0)" letter-spacing="normal" word-spacing="normal" direction="ltr" writing-mode="lr-tb" baseline-shift="baseline" text-anchor="start" clip-rule="nonzero" display="inline" overflow="visible" visibility="visible" opacity="1" color-interpolation="srgb" color-interpolation-filters="linearrgb" fill-opacity="1" fill-rule="nonzero" stroke="none" stroke-width="1" stroke-linecap="round" stroke-linejoin="round" stroke-miterlimit="4" stroke-dasharray="none" stroke-dashoffset="0" stroke-opacity="1" color-rendering="auto" image-rendering="auto" shape-rendering="auto" text-rendering="auto" style="font: medium sans-serif; text-indent: 0px; text-align: start; text-transform: none; white-space: normal; isolation: auto; mix-blend-mode: normal;" />
    <path id="_pQPlvwvGw6th86SLJ9D1k" d="m 9.629 1030.3849 c -0.6739 0.084 -1.3199 0.3953 -1.8125 0.9177 a 0.5001556 0.5000204 0 1 0 0.7285 0.6854 c 0.6605 -0.7005 1.7171 -0.8333 2.5293 -0.3164 0.8123 0.517 1.1385 1.5305 0.7832 2.4252 -0.3553 0.8946 -1.2886 1.407 -2.2343 1.2261 -0.9458 -0.1807 -1.6231 -1.0016 -1.6231 -1.9642 a 0.50004997 0.4999148 0 1 0 -1 0 c 0 1.436 1.0247 2.6767 2.4356 2.9465 1.4108 0.2696 2.8215 -0.5048 3.3515 -1.8394 0.53 -1.3347 0.036 -2.8665 -1.1758 -3.6377 -0.6058 -0.3855 -1.3085 -0.5272 -1.9824 -0.4432 z" fill="#ff4500" transform="matrix(6.7826762199401855, 0, 0, 6.7826762199401855, 149.45504760742188, -6849.59033203125)" color="rgb(0, 0, 0)" text-decoration="none solid rgb(0, 0, 0)" letter-spacing="normal" word-spacing="normal" direction="ltr" writing-mode="lr-tb" baseline-shift="baseline" text-anchor="start" clip-rule="nonzero" display="inline" overflow="visible" visibility="visible" opacity="1" color-interpolation="srgb" color-interpolation-filters="linearrgb" fill-opacity="1" fill-rule="nonzero" stroke="none" stroke-width="1" stroke-linecap="round" stroke-linejoin="round" stroke-miterlimit="4" stroke-dasharray="none" stroke-dashoffset="0" stroke-opacity="1" color-rendering="auto" image-rendering="auto" shape-rendering="auto" text-rendering="auto" style="font: medium sans-serif; text-indent: 0px; text-align: start; text-transform: none; white-space: normal; isolation: auto; mix-blend-mode: normal;" />
    <path id="_qwXNWg-VCji4lBsWaJKrg" d="m 5.5079 1025.6108 a 0.50004997 0.4999148 0 0 0 -0.5078 0.4978 0.50004997 0.4999148 0 0 0 0 0.025 c 0 0 0 0.014 0 0.014 a 0.50004997 0.4999148 0 0 0 0 0.027 c 0 0.037 0.036 0.6998 0.1621 1.4957 0.065 0.4089 0.1529 0.8445 0.2793 1.2439 0.1264 0.3993 0.2729 0.7665 0.5625 1.0544 a 0.50004997 0.4999148 0 1 0 0.7051 -0.7088 c -0.072 -0.071 -0.2115 -0.321 -0.3144 -0.6463 -0.103 -0.3253 -0.1861 -0.7215 -0.2461 -1.0993 -0.06 -0.3773 -0.053 -0.4518 -0.076 -0.7147 0.4919 0.1745 0.9883 0.3787 1.6074 0.4764 2.0418 0.3227 4.0063 -0.3084 5.6523 0.125 0.3185 0.084 0.9063 0.3848 1.3711 0.6619 0.4649 0.2771 0.8262 0.5253 0.8262 0.5253 a 0.50004997 0.4999148 0 0 0 0.5332 0.023 c 0 0 0.4548 -0.2625 1.0352 -0.5526 0.5804 -0.2901 1.3022 -0.6036 1.7207 -0.6971 1.6232 -0.3623 3.5102 0.2017 5.4824 -0.084 0.6342 -0.092 1.1759 -0.2978 1.6582 -0.4589 0 0.2394 0.013 0.2996 -0.033 0.6737 -0.044 0.3653 -0.1187 0.763 -0.2324 1.1266 a 0.50037422 0.50023897 0 0 0 0.9551 0.2987 c 0.1383 -0.4424 0.2198 -0.8943 0.2695 -1.3043 0.1014 -0.8189 0.074 -1.4821 0.074 -1.4821 a 0.50004997 0.4999148 0 0 0 -0.6641 -0.4529 c 0 0 -1.5208 0.5132 -2.1699 0.6072 -1.6704 0.242 -3.5902 -0.3417 -5.5586 0.098 -0.6156 0.1374 -1.3401 0.4746 -1.9492 0.7791 -0.4558 0.2278 -0.651 0.3414 -0.8144 0.4334 -0.1441 -0.097 -0.2722 -0.1864 -0.6211 -0.3945 -0.4964 -0.2959 -1.0843 -0.6265 -1.627 -0.7692 -2.0295 -0.5344 -4.0385 0.1262 -5.7519 -0.1445 -0.6465 -0.1021 -2.1661 -0.6502 -2.1661 -0.6502 l 0 0 a 0.50004997 0.4999148 0 0 0 -0.168 -0.033 z" fill="#0e1e40" transform="matrix(6.7826762199401855, 0, 0, 6.7826762199401855, 147.0098114013672, -6853.814453125)" color="rgb(0, 0, 0)" text-decoration="none solid rgb(0, 0, 0)" letter-spacing="normal" word-spacing="normal" direction="ltr" writing-mode="lr-tb" baseline-shift="baseline" text-anchor="start" clip-rule="nonzero" display="inline" overflow="visible" visibility="visible" opacity="1" color-interpolation="srgb" color-interpolation-filters="linearrgb" fill-opacity="1" fill-rule="evenodd" stroke="none" stroke-width="1px" stroke-linecap="round" stroke-linejoin="round" stroke-miterlimit="4" stroke-dasharray="none" stroke-dashoffset="0" stroke-opacity="1" color-rendering="auto" image-rendering="auto" shape-rendering="auto" text-rendering="auto" style="font: medium sans-serif; text-indent: 0px; text-align: start; text-transform: none; white-space: normal; isolation: auto; mix-blend-mode: normal;" />
    <path id="_8G5ammroIcZbYvBhTa9Ma" d="m 15.9864 1035.3581 a 0.50005 0.49991483 0 0 0 -0.3378 0.1426 l -1.75 1.7163 a 0.50005 0.49991483 0 0 0 -0.072 0.6229 l 1.75 2.7824 a 0.50005 0.49991483 0 0 0 0.8457 0 l 1.75 -2.7824 a 0.50005 0.49991483 0 0 0 -0.072 -0.6229 l -1.75 -1.7163 a 0.50005 0.49991483 0 0 0 -0.3633 -0.1426 z m 0.014 1.2009 1.1113 1.0895 -1.1132 1.769 -1.1114 -1.769 z" fill="#0e1e40" transform="matrix(6.7826762199401855, 0, 0, 6.7826762199401855, 147.76644897460938, -6851.07080078125)" color="rgb(0, 0, 0)" text-decoration="none solid rgb(0, 0, 0)" letter-spacing="normal" word-spacing="normal" direction="ltr" writing-mode="lr-tb" baseline-shift="baseline" text-anchor="start" clip-rule="nonzero" display="inline" overflow="visible" visibility="visible" opacity="1" color-interpolation="srgb" color-interpolation-filters="linearrgb" fill-opacity="1" fill-rule="evenodd" stroke="none" stroke-width="1px" stroke-linecap="round" stroke-linejoin="round" stroke-miterlimit="4" stroke-dasharray="none" stroke-dashoffset="0" stroke-opacity="1" color-rendering="auto" image-rendering="auto" shape-rendering="auto" text-rendering="auto" style="font: medium sans-serif; text-indent: 0px; text-align: start; text-transform: none; white-space: normal; isolation: auto; mix-blend-mode: normal;" />
  </g>
</svg>