<svg xmlns="http://www.w3.org/2000/svg" width="512" height="512" style="" viewBox="0 0 512 512" data-svgdocument="" id="_469y_8l2lf9Q1mj_DHaI_" class="fl-svgdocument" x="0" y="0" overflow="hidden" data-bbox="78.78795808763425 123.72212072927913 352.0414036363363 298.98277426802224">
  <defs id="_jlJwo_tRGMdgYUkBjWihb" transform="matrix(1.1551120281219482, 0, 0, 1.1551120281219482, -55.733123779296875, 73.71556854248047)" />
  <g id="_VhszvOFyKMW0SGS_kieQD" transform="matrix(0.8124998211860657, 0, 0, 0.8124998211860657, 38.200592041015625, 43.1716423034668)" fill="#0e1e40">
    <path id="_w5VfJMYMvW54Lz4D9PC_5" d="m 25.672 1035.8717 a 0.50004997 0.4999148 0 0 0 -0.4473 0.6697 c 1.3248 3.8683 0.095 8.1465 -3.0801 10.7236 -3.1751 2.5771 -7.6162 2.8992 -11.1308 0.8084 -3.5147 -2.0907 -5.3487 -6.146 -4.5977 -10.1652 a 0.50063845 0.50050313 0 0 0 -0.9843 -0.1835 c -0.8275 4.4279 1.1982 8.9045 5.0703 11.2079 3.872 2.3033 8.7754 1.9487 12.2734 -0.8904 3.498 -2.8392 4.854 -7.5632 3.3945 -11.8249 a 0.50004997 0.4999148 0 0 0 -0.498 -0.3456 z" fill="#0e1e40" transform="matrix(6.7826762199401855, 0, 0, 6.7826762199401855, 150.21359252929688, -6847.21044921875)" color="rgb(0, 0, 0)" text-decoration="none solid rgb(0, 0, 0)" letter-spacing="normal" word-spacing="normal" direction="ltr" writing-mode="lr-tb" baseline-shift="baseline" text-anchor="start" clip-rule="nonzero" display="inline" overflow="visible" visibility="visible" opacity="1" color-interpolation="srgb" color-interpolation-filters="linearrgb" fill-opacity="1" fill-rule="nonzero" stroke="none" stroke-width="1" stroke-linecap="round" stroke-linejoin="round" stroke-miterlimit="4" stroke-dasharray="none" stroke-dashoffset="0" stroke-opacity="1" color-rendering="auto" image-rendering="auto" shape-rendering="auto" text-rendering="auto" style="font: medium sans-serif; text-indent: 0px; text-align: start; text-transform: none; white-space: normal; isolation: auto; mix-blend-mode: normal;" />
    <path id="_G2KTZoLS2N0Lt4IxG2Glj" d="m 17.0978 1038.3046 a 0.50005 0.49991483 0 0 0 -0.022 0.9959 c 2.7081 0.3333 5.0294 1.8961 6.1738 4.1199 a 0.50005 0.49991483 0 1 0 0.8887 -0.4569 c -1.3083 -2.5422 -3.9261 -4.2838 -6.9414 -4.655 a 0.50005 0.49991483 0 0 0 -0.1 0 z" fill="#0e1e40" transform="matrix(-2.4244611263275146, 6.3345627784729, -6.3345627784729, -2.4244611263275146, 6923.73486328125, 2621.57763671875)" color="rgb(0, 0, 0)" text-decoration="none solid rgb(0, 0, 0)" letter-spacing="normal" word-spacing="normal" direction="ltr" writing-mode="lr-tb" baseline-shift="baseline" text-anchor="start" clip-rule="nonzero" display="inline" overflow="visible" visibility="visible" opacity="1" color-interpolation="srgb" color-interpolation-filters="linearrgb" fill-opacity="1" fill-rule="nonzero" stroke="none" stroke-width="1" stroke-linecap="round" stroke-linejoin="round" stroke-miterlimit="4" stroke-dasharray="none" stroke-dashoffset="0" stroke-opacity="1" color-rendering="auto" image-rendering="auto" shape-rendering="auto" text-rendering="auto" style="font: medium sans-serif; text-indent: 0px; text-align: start; text-transform: none; white-space: normal; isolation: auto; mix-blend-mode: normal;" />
    <path id="_YhHzF7fi1cfGJKVtDrjvV" d="m 21.8771 1030.3634 c -0.6751 0.028 -1.3421 0.2824 -1.875 0.7576 a 0.5000553 0.49992013 0 1 0 0.666 0.7459 c 0.7143 -0.637 1.7708 -0.6816 2.5351 -0.1055 0.7643 0.5762 1.0138 1.6044 0.5977 2.4661 -0.4161 0.8618 -1.3761 1.306 -2.3027 1.0662 -0.9267 -0.2398 -1.5506 -1.0928 -1.4961 -2.0483 a 0.50004997 0.4999148 0 1 0 -0.9981 -0.057 c -0.081 1.4254 0.8616 2.7156 2.2442 3.0734 1.3825 0.3577 2.8323 -0.3134 3.4531 -1.5992 0.6208 -1.2858 0.2438 -2.8386 -0.8965 -3.6982 -0.5702 -0.4299 -1.2527 -0.6292 -1.9277 -0.6014 z" fill="#0e1e40" transform="matrix(6.7826762199401855, 0, 0, 6.7826762199401855, 149.4613800048828, -6849.5830078125)" color="rgb(0, 0, 0)" text-decoration="none solid rgb(0, 0, 0)" letter-spacing="normal" word-spacing="normal" direction="ltr" writing-mode="lr-tb" baseline-shift="baseline" text-anchor="start" clip-rule="nonzero" display="inline" overflow="visible" visibility="visible" opacity="1" color-interpolation="srgb" color-interpolation-filters="linearrgb" fill-opacity="1" fill-rule="nonzero" stroke="none" stroke-width="1" stroke-linecap="round" stroke-linejoin="round" stroke-miterlimit="4" stroke-dasharray="none" stroke-dashoffset="0" stroke-opacity="1" color-rendering="auto" image-rendering="auto" shape-rendering="auto" text-rendering="auto" style="font: medium sans-serif; text-indent: 0px; text-align: start; text-transform: none; white-space: normal; isolation: auto; mix-blend-mode: normal;" />
    <path id="_pQPlvwvGw6th86SLJ9D1k" d="m 9.629 1030.3849 c -0.6739 0.084 -1.3199 0.3953 -1.8125 0.9177 a 0.5001556 0.5000204 0 1 0 0.7285 0.6854 c 0.6605 -0.7005 1.7171 -0.8333 2.5293 -0.3164 0.8123 0.517 1.1385 1.5305 0.7832 2.4252 -0.3553 0.8946 -1.2886 1.407 -2.2343 1.2261 -0.9458 -0.1807 -1.6231 -1.0016 -1.6231 -1.9642 a 0.50004997 0.4999148 0 1 0 -1 0 c 0 1.436 1.0247 2.6767 2.4356 2.9465 1.4108 0.2696 2.8215 -0.5048 3.3515 -1.8394 0.53 -1.3347 0.036 -2.8665 -1.1758 -3.6377 -0.6058 -0.3855 -1.3085 -0.5272 -1.9824 -0.4432 z" fill="#ff4500" transform="matrix(6.7826762199401855, 0, 0, 6.7826762199401855, 149.45504760742188, -6849.59033203125)" color="rgb(0, 0, 0)" text-decoration="none solid rgb(0, 0, 0)" letter-spacing="normal" word-spacing="normal" direction="ltr" writing-mode="lr-tb" baseline-shift="baseline" text-anchor="start" clip-rule="nonzero" display="inline" overflow="visible" visibility="visible" opacity="1" color-interpolation="srgb" color-interpolation-filters="linearrgb" fill-opacity="1" fill-rule="nonzero" stroke="none" stroke-width="1" stroke-linecap="round" stroke-linejoin="round" stroke-miterlimit="4" stroke-dasharray="none" stroke-dashoffset="0" stroke-opacity="1" color-rendering="auto" image-rendering="auto" shape-rendering="auto" text-rendering="auto" style="font: medium sans-serif; text-indent: 0px; text-align: start; text-transform: none; white-space: normal; isolation: auto; mix-blend-mode: normal;" />
    <path id="_qwXNWg-VCji4lBsWaJKrg" d="m 5.5079 1025.6108 a 0.50004997 0.4999148 0 0 0 -0.5078 0.4978 0.50004997 0.4999148 0 0 0 0 0.025 c 0 0 0 0.014 0 0.014 a 0.50004997 0.4999148 0 0 0 0 0.027 c 0 0.037 0.036 0.6998 0.1621 1.4957 0.065 0.4089 0.1529 0.8445 0.2793 1.2439 0.1264 0.3993 0.2729 0.7665 0.5625 1.0544 a 0.50004997 0.4999148 0 1 0 0.7051 -0.7088 c -0.072 -0.071 -0.2115 -0.321 -0.3144 -0.6463 -0.103 -0.3253 -0.1861 -0.7215 -0.2461 -1.0993 -0.06 -0.3773 -0.053 -0.4518 -0.076 -0.7147 0.4919 0.1745 0.9883 0.3787 1.6074 0.4764 2.0418 0.3227 4.0063 -0.3084 5.6523 0.125 0.3185 0.084 0.9063 0.3848 1.3711 0.6619 0.4649 0.2771 0.8262 0.5253 0.8262 0.5253 a 0.50004997 0.4999148 0 0 0 0.5332 0.023 c 0 0 0.4548 -0.2625 1.0352 -0.5526 0.5804 -0.2901 1.3022 -0.6036 1.7207 -0.6971 1.6232 -0.3623 3.5102 0.2017 5.4824 -0.084 0.6342 -0.092 1.1759 -0.2978 1.6582 -0.4589 0 0.2394 0.013 0.2996 -0.033 0.6737 -0.044 0.3653 -0.1187 0.763 -0.2324 1.1266 a 0.50037422 0.50023897 0 0 0 0.9551 0.2987 c 0.1383 -0.4424 0.2198 -0.8943 0.2695 -1.3043 0.1014 -0.8189 0.074 -1.4821 0.074 -1.4821 a 0.50004997 0.4999148 0 0 0 -0.6641 -0.4529 c 0 0 -1.5208 0.5132 -2.1699 0.6072 -1.6704 0.242 -3.5902 -0.3417 -5.5586 0.098 -0.6156 0.1374 -1.3401 0.4746 -1.9492 0.7791 -0.4558 0.2278 -0.651 0.3414 -0.8144 0.4334 -0.1441 -0.097 -0.2722 -0.1864 -0.6211 -0.3945 -0.4964 -0.2959 -1.0843 -0.6265 -1.627 -0.7692 -2.0295 -0.5344 -4.0385 0.1262 -5.7519 -0.1445 -0.6465 -0.1021 -2.1661 -0.6502 -2.1661 -0.6502 l 0 0 a 0.50004997 0.4999148 0 0 0 -0.168 -0.033 z" fill="#0e1e40" transform="matrix(6.7826762199401855, 0, 0, 6.7826762199401855, 147.0098114013672, -6853.814453125)" color="rgb(0, 0, 0)" text-decoration="none solid rgb(0, 0, 0)" letter-spacing="normal" word-spacing="normal" direction="ltr" writing-mode="lr-tb" baseline-shift="baseline" text-anchor="start" clip-rule="nonzero" display="inline" overflow="visible" visibility="visible" opacity="1" color-interpolation="srgb" color-interpolation-filters="linearrgb" fill-opacity="1" fill-rule="evenodd" stroke="none" stroke-width="1px" stroke-linecap="round" stroke-linejoin="round" stroke-miterlimit="4" stroke-dasharray="none" stroke-dashoffset="0" stroke-opacity="1" color-rendering="auto" image-rendering="auto" shape-rendering="auto" text-rendering="auto" style="font: medium sans-serif; text-indent: 0px; text-align: start; text-transform: none; white-space: normal; isolation: auto; mix-blend-mode: normal;" />
    <path id="_8G5ammroIcZbYvBhTa9Ma" d="m 15.9864 1035.3581 a 0.50005 0.49991483 0 0 0 -0.3378 0.1426 l -1.75 1.7163 a 0.50005 0.49991483 0 0 0 -0.072 0.6229 l 1.75 2.7824 a 0.50005 0.49991483 0 0 0 0.8457 0 l 1.75 -2.7824 a 0.50005 0.49991483 0 0 0 -0.072 -0.6229 l -1.75 -1.7163 a 0.50005 0.49991483 0 0 0 -0.3633 -0.1426 z m 0.014 1.2009 1.1113 1.0895 -1.1132 1.769 -1.1114 -1.769 z" fill="#0e1e40" transform="matrix(6.7826762199401855, 0, 0, 6.7826762199401855, 151.02426147460938, -6849.56591796875)" color="rgb(0, 0, 0)" text-decoration="none solid rgb(0, 0, 0)" letter-spacing="normal" word-spacing="normal" direction="ltr" writing-mode="lr-tb" baseline-shift="baseline" text-anchor="start" clip-rule="nonzero" display="inline" overflow="visible" visibility="visible" opacity="1" color-interpolation="srgb" color-interpolation-filters="linearrgb" fill-opacity="1" fill-rule="evenodd" stroke="none" stroke-width="1px" stroke-linecap="round" stroke-linejoin="round" stroke-miterlimit="4" stroke-dasharray="none" stroke-dashoffset="0" stroke-opacity="1" color-rendering="auto" image-rendering="auto" shape-rendering="auto" text-rendering="auto" style="font: medium sans-serif; text-indent: 0px; text-align: start; text-transform: none; white-space: normal; isolation: auto; mix-blend-mode: normal;" />
  </g>
  <path id="_v8w8s5olMWjEoPGl3q7DI" fill="#0e1e40" transform="matrix(0.3568372214411562, 0, 0, 0.3568372214411562, 255.21495375690637, 341.302737769926)" text="richardclark.nz" text-anchor="middle" font-size="100" letter-spacing="0" side="left" offset="0.5" dx="0" dy="0" space="preserve" href="" font-family="Montserrat" font-scale="contain" x="0" y="0" font-weight="700" data-fl-textpath="" d="M-369.6500000000001-46.7Q-366.85000000000014-50.6 -362.10000000000014-52.6Q-357.35000000000014-54.6 -351.1500000000001-54.6L-351.1500000000001-54.6L-351.1500000000001-40.2Q-353.7500000000001-40.4 -354.6500000000001-40.4L-354.6500000000001-40.4Q-361.35000000000014-40.4 -365.1500000000001-36.65Q-368.9500000000001-32.9 -368.9500000000001-25.4L-368.9500000000001-25.4L-368.9500000000001 0L-384.5500000000001 0L-384.5500000000001-53.8L-369.6500000000001-53.8L-369.6500000000001-46.7ZM-341.85000000000014 0L-341.85000000000014-53.8L-326.2500000000001-53.8L-326.2500000000001 0L-341.85000000000014 0ZM-334.0500000000001-61.3Q-338.35000000000014-61.3 -341.0500000000001-63.8Q-343.7500000000001-66.3 -343.7500000000001-70L-343.7500000000001-70Q-343.7500000000001-73.7 -341.0500000000001-76.2Q-338.35000000000014-78.7 -334.0500000000001-78.7L-334.0500000000001-78.7Q-329.7500000000001-78.7 -327.0500000000001-76.3Q-324.35000000000014-73.9 -324.35000000000014-70.3L-324.35000000000014-70.3Q-324.35000000000014-66.4 -327.0500000000001-63.85Q-329.7500000000001-61.3 -334.0500000000001-61.3L-334.0500000000001-61.3ZM-285.7500000000001 0.8Q-294.3500000000001 0.8 -301.2000000000001-2.75Q-308.0500000000001-6.3 -311.9000000000001-12.6Q-315.7500000000001-18.9 -315.7500000000001-26.9L-315.7500000000001-26.9Q-315.7500000000001-34.9 -311.9000000000001-41.2Q-308.0500000000001-47.5 -301.2000000000001-51.05Q-294.3500000000001-54.6 -285.7500000000001-54.6L-285.7500000000001-54.6Q-277.2500000000001-54.6 -270.9000000000001-51.05Q-264.5500000000001-47.5 -261.6500000000001-40.9L-261.6500000000001-40.9L-273.7500000000001-34.4Q-277.9500000000001-41.8 -285.8500000000001-41.8L-285.8500000000001-41.8Q-291.9500000000001-41.8 -295.9500000000001-37.8Q-299.9500000000001-33.8 -299.9500000000001-26.9L-299.9500000000001-26.9Q-299.9500000000001-20 -295.9500000000001-16Q-291.9500000000001-12 -285.8500000000001-12L-285.8500000000001-12Q-277.8500000000001-12 -273.7500000000001-19.4L-273.7500000000001-19.4L-261.6500000000001-12.8Q-264.5500000000001-6.4 -270.9000000000001-2.8Q-277.2500000000001 0.8 -285.7500000000001 0.8L-285.7500000000001 0.8ZM-220.3500000000001-54.6Q-210.3500000000001-54.6 -204.2000000000001-48.6Q-198.05000000000013-42.6 -198.05000000000013-30.8L-198.05000000000013-30.8L-198.05000000000013 0L-213.65000000000012 0L-213.65000000000012-28.4Q-213.65000000000012-34.8 -216.4500000000001-37.95Q-219.2500000000001-41.1 -224.55000000000013-41.1L-224.55000000000013-41.1Q-230.4500000000001-41.1 -233.9500000000001-37.45Q-237.4500000000001-33.8 -237.4500000000001-26.6L-237.4500000000001-26.6L-237.4500000000001 0L-253.05000000000013 0L-253.05000000000013-74.2L-237.4500000000001-74.2L-237.4500000000001-48.2Q-234.3500000000001-51.3 -229.9500000000001-52.95Q-225.55000000000013-54.6 -220.3500000000001-54.6L-220.3500000000001-54.6ZM-162.25000000000009-54.6Q-149.75000000000009-54.6 -143.0500000000001-48.65Q-136.35000000000008-42.7 -136.35000000000008-30.7L-136.35000000000008-30.7L-136.35000000000008 0L-150.9500000000001 0L-150.9500000000001-6.7Q-155.35000000000008 0.8 -167.35000000000008 0.8L-167.35000000000008 0.8Q-173.5500000000001 0.8 -178.10000000000008-1.3Q-182.6500000000001-3.4 -185.0500000000001-7.1Q-187.4500000000001-10.8 -187.4500000000001-15.5L-187.4500000000001-15.5Q-187.4500000000001-23 -181.8000000000001-27.3Q-176.1500000000001-31.6 -164.35000000000008-31.6L-164.35000000000008-31.6L-151.9500000000001-31.6Q-151.9500000000001-36.7 -155.0500000000001-39.45Q-158.1500000000001-42.2 -164.35000000000008-42.2L-164.35000000000008-42.2Q-168.6500000000001-42.2 -172.8000000000001-40.85Q-176.9500000000001-39.5 -179.85000000000008-37.2L-179.85000000000008-37.2L-185.4500000000001-48.1Q-181.0500000000001-51.2 -174.9000000000001-52.9Q-168.75000000000009-54.6 -162.25000000000009-54.6L-162.25000000000009-54.6ZM-163.4500000000001-9.7Q-159.4500000000001-9.7 -156.35000000000008-11.55Q-153.25000000000009-13.4 -151.9500000000001-17L-151.9500000000001-17L-151.9500000000001-22.5L-162.6500000000001-22.5Q-172.25000000000009-22.5 -172.25000000000009-16.2L-172.25000000000009-16.2Q-172.25000000000009-13.2 -169.9000000000001-11.45Q-167.5500000000001-9.7 -163.4500000000001-9.7L-163.4500000000001-9.7ZM-107.35000000000011-46.7Q-104.5500000000001-50.6 -99.8000000000001-52.6Q-95.0500000000001-54.6 -88.85000000000011-54.6L-88.85000000000011-54.6L-88.85000000000011-40.2Q-91.4500000000001-40.4 -92.35000000000011-40.4L-92.35000000000011-40.4Q-99.0500000000001-40.4 -102.85000000000011-36.65Q-106.6500000000001-32.9 -106.6500000000001-25.4L-106.6500000000001-25.4L-106.6500000000001 0L-122.2500000000001 0L-122.2500000000001-53.8L-107.35000000000011-53.8L-107.35000000000011-46.7ZM-40.8500000000001-74.2L-25.2500000000001-74.2L-25.2500000000001 0L-40.1500000000001 0L-40.1500000000001-6.2Q-45.9500000000001 0.8 -56.9500000000001 0.8L-56.9500000000001 0.8Q-64.5500000000001 0.8 -70.7000000000001-2.6Q-76.8500000000001-6 -80.3500000000001-12.3Q-83.8500000000001-18.6 -83.8500000000001-26.9L-83.8500000000001-26.9Q-83.8500000000001-35.2 -80.3500000000001-41.5Q-76.8500000000001-47.8 -70.7000000000001-51.2Q-64.5500000000001-54.6 -56.9500000000001-54.6L-56.9500000000001-54.6Q-46.6500000000001-54.6 -40.8500000000001-48.1L-40.8500000000001-48.1L-40.8500000000001-74.2ZM-54.2500000000001-12Q-48.3500000000001-12 -44.4500000000001-16.05Q-40.5500000000001-20.1 -40.5500000000001-26.9L-40.5500000000001-26.9Q-40.5500000000001-33.7 -44.4500000000001-37.75Q-48.3500000000001-41.8 -54.2500000000001-41.8L-54.2500000000001-41.8Q-60.2500000000001-41.8 -64.15000000000009-37.75Q-68.0500000000001-33.7 -68.0500000000001-26.9L-68.0500000000001-26.9Q-68.0500000000001-20.1 -64.15000000000009-16.05Q-60.2500000000001-12 -54.2500000000001-12L-54.2500000000001-12ZM 15.149999999999906 0.8Q 6.549999999999905 0.8 -0.30000000000009663-2.75Q-7.150000000000096-6.3 -11.000000000000096-12.6Q-14.850000000000097-18.9 -14.850000000000097-26.9L-14.850000000000097-26.9Q-14.850000000000097-34.9 -11.000000000000096-41.2Q-7.150000000000096-47.5 -0.30000000000009663-51.05Q 6.549999999999905-54.6  15.149999999999906-54.6L 15.149999999999906-54.6Q 23.649999999999906-54.6  29.9999999999999-51.05Q 36.3499999999999-47.5  39.2499999999999-40.9L 39.2499999999999-40.9L 27.149999999999906-34.4Q 22.949999999999903-41.8  15.049999999999905-41.8L 15.049999999999905-41.8Q 8.949999999999903-41.8  4.949999999999903-37.8Q 0.9499999999999034-33.8  0.9499999999999034-26.9L 0.9499999999999034-26.9Q 0.9499999999999034-20  4.949999999999903-16Q 8.949999999999903-12  15.049999999999905-12L 15.049999999999905-12Q 23.049999999999905-12  27.149999999999906-19.4L 27.149999999999906-19.4L 39.2499999999999-12.8Q 36.3499999999999-6.4  29.9999999999999-2.8Q 23.649999999999906 0.8  15.149999999999906 0.8L 15.149999999999906 0.8ZM 47.84999999999991 0L 47.84999999999991-74.2L 63.4499999999999-74.2L 63.4499999999999 0L 47.84999999999991 0ZM 99.64999999999992-54.6Q 112.14999999999992-54.6  118.84999999999991-48.65Q 125.54999999999991-42.7  125.54999999999991-30.7L 125.54999999999991-30.7L 125.54999999999991 0L 110.94999999999992 0L 110.94999999999992-6.7Q 106.54999999999991 0.8  94.54999999999991 0.8L 94.54999999999991 0.8Q 88.34999999999991 0.8  83.79999999999991-1.3Q 79.24999999999991-3.4  76.84999999999991-7.1Q 74.44999999999992-10.8  74.44999999999992-15.5L 74.44999999999992-15.5Q 74.44999999999992-23  80.09999999999991-27.3Q 85.74999999999991-31.6  97.54999999999991-31.6L 97.54999999999991-31.6L 109.94999999999992-31.6Q 109.94999999999992-36.7  106.84999999999991-39.45Q 103.74999999999991-42.2  97.54999999999991-42.2L 97.54999999999991-42.2Q 93.24999999999991-42.2  89.09999999999991-40.85Q 84.94999999999992-39.5  82.04999999999991-37.2L 82.04999999999991-37.2L 76.44999999999992-48.1Q 80.84999999999991-51.2  86.99999999999991-52.9Q 93.14999999999992-54.6  99.64999999999992-54.6L 99.64999999999992-54.6ZM 98.44999999999992-9.7Q 102.44999999999992-9.7  105.54999999999991-11.55Q 108.64999999999992-13.4  109.94999999999992-17L 109.94999999999992-17L 109.94999999999992-22.5L 99.24999999999991-22.5Q 89.64999999999992-22.5  89.64999999999992-16.2L 89.64999999999992-16.2Q 89.64999999999992-13.2  91.99999999999991-11.45Q 94.34999999999991-9.7  98.44999999999992-9.7L 98.44999999999992-9.7ZM 154.54999999999993-46.7Q 157.34999999999994-50.6  162.09999999999994-52.6Q 166.84999999999994-54.6  173.04999999999993-54.6L 173.04999999999993-54.6L 173.04999999999993-40.2Q 170.44999999999993-40.4  169.54999999999993-40.4L 169.54999999999993-40.4Q 162.84999999999994-40.4  159.04999999999993-36.65Q 155.24999999999994-32.9  155.24999999999994-25.4L 155.24999999999994-25.4L 155.24999999999994 0L 139.64999999999992 0L 139.64999999999992-53.8L 154.54999999999993-53.8L 154.54999999999993-46.7ZM 222.44999999999993 0L 205.44999999999993-21.1L 197.94999999999993-13.7L 197.94999999999993 0L 182.3499999999999 0L 182.3499999999999-74.2L 197.94999999999993-74.2L 197.94999999999993-32.2L 220.74999999999991-53.8L 239.3499999999999-53.8L 216.94999999999993-31L 241.3499999999999 0L 222.44999999999993 0ZM 255.24999999999991 0.8Q 251.14999999999992 0.8  248.3499999999999-2Q 245.54999999999993-4.8  245.54999999999993-9L 245.54999999999993-9Q 245.54999999999993-13.3  248.3499999999999-15.95Q 251.14999999999992-18.6  255.24999999999991-18.6L 255.24999999999991-18.6Q 259.3499999999999-18.6  262.1499999999999-15.95Q 264.94999999999993-13.3  264.94999999999993-9L 264.94999999999993-9Q 264.94999999999993-4.8  262.1499999999999-2Q 259.3499999999999 0.8  255.24999999999991 0.8L 255.24999999999991 0.8ZM 308.2499999999999-54.6Q 318.2499999999999-54.6  324.3999999999999-48.6Q 330.5499999999999-42.6  330.5499999999999-30.8L 330.5499999999999-30.8L 330.5499999999999 0L 314.94999999999993 0L 314.94999999999993-28.4Q 314.94999999999993-34.8  312.1499999999999-37.95Q 309.3499999999999-41.1  304.0499999999999-41.1L 304.0499999999999-41.1Q 298.1499999999999-41.1  294.6499999999999-37.45Q 291.1499999999999-33.8  291.1499999999999-26.6L 291.1499999999999-26.6L 291.1499999999999 0L 275.5499999999999 0L 275.5499999999999-53.8L 290.44999999999993-53.8L 290.44999999999993-47.5Q 293.5499999999999-50.9  298.1499999999999-52.75Q 302.7499999999999-54.6  308.2499999999999-54.6L 308.2499999999999-54.6ZM 360.6499999999999-12L 388.94999999999993-12L 388.94999999999993 0L 340.94999999999993 0L 340.94999999999993-9.4L 368.3499999999999-41.8L 341.6499999999999-41.8L 341.6499999999999-53.8L 388.04999999999995-53.8L 388.04999999999995-44.4L 360.6499999999999-12Z" />
  <path id="_w_ZpSSBLuZgb0FATC10kO" fill="#0e1e40" transform="matrix(0.4541355933713017, 0, 0, 0.48817488691943844, 140.47291647951226, 413.23430144616856)" text="nz" text-anchor="middle" font-size="100" letter-spacing="0" side="left" offset="0.5" dx="0" dy="0" space="preserve" href="" font-family="Montserrat" font-scale="contain" x="0" y="0" data-fl-textpath="" d="M-22.700000000000003-53Q-12.800000000000004-53 -6.950000000000003-47.25Q-1.1000000000000085-41.5 -1.1000000000000085-30.5L-1.1000000000000085-30.5L-1.1000000000000085 0L-8.200000000000003 0L-8.200000000000003-29.8Q-8.200000000000003-38 -12.300000000000004-42.3Q-16.400000000000006-46.6 -24.000000000000007-46.6L-24.000000000000007-46.6Q-32.50000000000001-46.6 -37.45-41.55Q-42.400000000000006-36.5 -42.400000000000006-27.6L-42.400000000000006-27.6L-42.400000000000006 0L-49.50000000000001 0L-49.50000000000001-52.6L-42.7-52.6L-42.7-42.9Q-39.800000000000004-47.7 -34.650000000000006-50.35Q-29.500000000000007-53 -22.700000000000003-53L-22.700000000000003-53ZM 21.599999999999994-5.9L 55.3-5.9L 55.3 0L 12.499999999999993 0L 12.499999999999993-4.7L 45.599999999999994-46.6L 13.099999999999994-46.6L 13.099999999999994-52.6L 54.69999999999999-52.6L 54.69999999999999-47.9L 21.599999999999994-5.9Z" />
  <path id="_w_ZpSSBLuZgb0FATC10kO" fill="#ff4500" transform="matrix(0.4900669680582118, 0, 0, 0.48817488691943844, 280.3847658569394, 413.23430144616856)" text="webApps" text-anchor="middle" font-size="100" letter-spacing="0" side="left" offset="0.5" dx="0" dy="0" space="preserve" href="" font-family="Montserrat" font-scale="contain" x="0" y="0" data-fl-textpath="" d="M-154.45000000000002-52.6L-147.95000000000002-52.6L-167.85000000000002 0L-174.55 0L-191.15-43.1L-207.75 0L-214.45000000000002 0L-234.25-52.6L-227.45000000000002-52.6L-210.95000000000002-7.9L-194.05-52.6L-187.95000000000002-52.6L-171.15-7.9L-154.45000000000002-52.6ZM-92.85000000000001-26.3L-92.95-24.1L-136.95000000000002-24.1Q-136.35-15.9 -130.65-10.85Q-124.95-5.8 -116.25-5.8L-116.25-5.8Q-111.35000000000001-5.8 -107.25-7.55Q-103.15-9.3 -100.15-12.7L-100.15-12.7L-96.15-8.1Q-99.65-3.9 -104.9-1.7Q-110.15 0.5 -116.45 0.5L-116.45 0.5Q-124.55000000000001 0.5 -130.8-2.95Q-137.05-6.4 -140.55-12.5Q-144.05-18.6 -144.05-26.3L-144.05-26.3Q-144.05-34 -140.70000000000002-40.1Q-137.35-46.2 -131.5-49.6Q-125.65-53 -118.35000000000001-53L-118.35000000000001-53Q-111.05000000000001-53 -105.25-49.6Q-99.45-46.2 -96.15-40.15Q-92.85000000000001-34.1 -92.85000000000001-26.3L-92.85000000000001-26.3ZM-118.35000000000001-46.9Q-125.95-46.9 -131.1-42.05Q-136.25-37.2 -136.95000000000002-29.4L-136.95000000000002-29.4L-99.65-29.4Q-100.35000000000001-37.2 -105.5-42.05Q-110.65-46.9 -118.35000000000001-46.9L-118.35000000000001-46.9ZM-51.25-53Q-43.85-53 -37.85-49.65Q-31.85-46.3 -28.450000000000003-40.2Q-25.049999999999997-34.1 -25.049999999999997-26.3L-25.049999999999997-26.3Q-25.049999999999997-18.5 -28.450000000000003-12.4Q-31.85-6.3 -37.85-2.9Q-43.85 0.5 -51.25 0.5L-51.25 0.5Q-57.85 0.5 -63.1-2.3Q-68.35-5.1 -71.55-10.4L-71.55-10.4L-71.55 0L-78.35 0L-78.35-74.2L-71.25-74.2L-71.25-42.6Q-67.95-47.7 -62.8-50.35Q-57.65-53 -51.25-53L-51.25-53ZM-51.75-5.8Q-46.25-5.8 -41.75-8.35Q-37.25-10.9 -34.7-15.6Q-32.15-20.3 -32.15-26.3L-32.15-26.3Q-32.15-32.3 -34.7-37Q-37.25-41.7 -41.75-44.25Q-46.25-46.8 -51.75-46.8L-51.75-46.8Q-57.35-46.8 -61.8-44.25Q-66.25-41.7 -68.8-37Q-71.35-32.3 -71.35-26.3L-71.35-26.3Q-71.35-20.3 -68.8-15.6Q-66.25-10.9 -61.8-8.35Q-57.35-5.8 -51.75-5.8L-51.75-5.8ZM 42.55 0L 34.14999999999999-18.7L-4.850000000000005-18.7L-13.250000000000005 0L-20.950000000000006 0L 11.049999999999997-70L 18.349999999999994-70L 50.349999999999994 0L 42.55 0ZM-2.1500000000000057-24.7L 31.449999999999996-24.7L 14.649999999999991-62.3L-2.1500000000000057-24.7ZM 87.54999999999998-53Q 94.94999999999999-53  100.94999999999999-49.65Q 106.94999999999999-46.3  110.35-40.2Q 113.75-34.1  113.75-26.3L 113.75-26.3Q 113.75-18.4  110.35-12.3Q 106.94999999999999-6.2  101-2.85Q 95.04999999999998 0.5  87.54999999999998 0.5L 87.54999999999998 0.5Q 81.14999999999999 0.5  75.99999999999999-2.15Q 70.85-4.8  67.54999999999998-9.9L 67.54999999999998-9.9L 67.54999999999998 19.4L 60.44999999999999 19.4L 60.44999999999999-52.6L 67.24999999999999-52.6L 67.24999999999999-42.2Q 70.44999999999999-47.4  75.69999999999999-50.2Q 80.94999999999999-53  87.54999999999998-53L 87.54999999999998-53ZM 87.04999999999998-5.8Q 92.54999999999998-5.8  97.04999999999998-8.35Q 101.54999999999998-10.9  104.1-15.6Q 106.64999999999999-20.3  106.64999999999999-26.3L 106.64999999999999-26.3Q 106.64999999999999-32.3  104.1-36.95Q 101.54999999999998-41.6  97.04999999999998-44.2Q 92.54999999999998-46.8  87.04999999999998-46.8L 87.04999999999998-46.8Q 81.44999999999999-46.8  76.99999999999999-44.2Q 72.54999999999998-41.6  69.99999999999999-36.95Q 67.44999999999999-32.3  67.44999999999999-26.3L 67.44999999999999-26.3Q 67.44999999999999-20.3  69.99999999999999-15.6Q 72.54999999999998-10.9  76.99999999999999-8.35Q 81.44999999999999-5.8  87.04999999999998-5.8L 87.04999999999998-5.8ZM 155.35-53Q 162.75-53  168.75-49.65Q 174.75-46.3  178.14999999999998-40.2Q 181.55-34.1  181.55-26.3L 181.55-26.3Q 181.55-18.4  178.14999999999998-12.3Q 174.75-6.2  168.8-2.85Q 162.85 0.5  155.35 0.5L 155.35 0.5Q 148.95 0.5  143.79999999999998-2.15Q 138.65-4.8  135.35-9.9L 135.35-9.9L 135.35 19.4L 128.25 19.4L 128.25-52.6L 135.04999999999998-52.6L 135.04999999999998-42.2Q 138.25-47.4  143.5-50.2Q 148.75-53  155.35-53L 155.35-53ZM 154.85-5.8Q 160.35-5.8  164.85-8.35Q 169.35-10.9  171.89999999999998-15.6Q 174.45-20.3  174.45-26.3L 174.45-26.3Q 174.45-32.3  171.89999999999998-36.95Q 169.35-41.6  164.85-44.2Q 160.35-46.8  154.85-46.8L 154.85-46.8Q 149.25-46.8  144.79999999999998-44.2Q 140.35-41.6  137.79999999999998-36.95Q 135.25-32.3  135.25-26.3L 135.25-26.3Q 135.25-20.3  137.79999999999998-15.6Q 140.35-10.9  144.79999999999998-8.35Q 149.25-5.8  154.85-5.8L 154.85-5.8ZM 210.14999999999998 0.5Q 203.74999999999997 0.5  197.89999999999998-1.35Q 192.04999999999998-3.2  188.74999999999997-6L 188.74999999999997-6L 191.95-11.6Q 195.24999999999997-9  200.24999999999997-7.35Q 205.24999999999997-5.7  210.64999999999998-5.7L 210.64999999999998-5.7Q 217.84999999999997-5.7  221.29999999999998-7.95Q 224.74999999999997-10.2  224.74999999999997-14.3L 224.74999999999997-14.3Q 224.74999999999997-17.2  222.84999999999997-18.85Q 220.95-20.5  218.04999999999998-21.35Q 215.14999999999998-22.2  210.34999999999997-23L 210.34999999999997-23Q 203.95-24.2  200.04999999999998-25.45Q 196.14999999999998-26.7  193.39999999999998-29.7Q 190.64999999999998-32.7  190.64999999999998-38L 190.64999999999998-38Q 190.64999999999998-44.6  196.14999999999998-48.8Q 201.64999999999998-53  211.45-53L 211.45-53Q 216.54999999999998-53  221.64999999999998-51.65Q 226.74999999999997-50.3  230.04999999999998-48.1L 230.04999999999998-48.1L 226.95-42.4Q 220.45-46.9  211.45-46.9L 211.45-46.9Q 204.64999999999998-46.9  201.2-44.5Q 197.74999999999997-42.1  197.74999999999997-38.2L 197.74999999999997-38.2Q 197.74999999999997-35.2  199.7-33.4Q 201.64999999999998-31.6  204.54999999999998-30.75Q 207.45-29.9  212.54999999999998-29L 212.54999999999998-29Q 218.84999999999997-27.8  222.64999999999998-26.6Q 226.45-25.4  229.14999999999998-22.5Q 231.84999999999997-19.6  231.84999999999997-14.5L 231.84999999999997-14.5Q 231.84999999999997-7.6  226.09999999999997-3.55Q 220.34999999999997 0.5  210.14999999999998 0.5L 210.14999999999998 0.5Z" />
</svg>