<svg xmlns="http://www.w3.org/2000/svg" width="512" height="512" viewBox="0 0 512 512" data-svgdocument="" id="_469y_8l2lf9Q1mj_DHaI_" class="fl-svgdocument" x="0" y="0" overflow="hidden" style="">
  <defs id="_jlJwo_tRGMdgYUkBjWihb" transform="matrix(1.15511206650578, 0, 0, 1.15511206650578, -55.733122217020345, 73.71556856369155)" />
  <g id="_VhszvOFyKMW0SGS_kieQD" transform="matrix(0.8124999274256848, 0, 0, 0.8124999274256848, 38.200592591247826, 43.17164299077364)" fill="#0e1e40">
    <path id="_w5VfJMYMvW54Lz4D9PC_5" d="m 25.672 1035.8717 a 0.50004997 0.4999148 0 0 0 -0.4473 0.6697 c 1.3248 3.8683 0.095 8.1465 -3.0801 10.7236 -3.1751 2.5771 -7.6162 2.8992 -11.1308 0.8084 -3.5147 -2.0907 -5.3487 -6.146 -4.5977 -10.1652 a 0.50063845 0.50050313 0 0 0 -0.9843 -0.1835 c -0.8275 4.4279 1.1982 8.9045 5.0703 11.2079 3.872 2.3033 8.7754 1.9487 12.2734 -0.8904 3.498 -2.8392 4.854 -7.5632 3.3945 -11.8249 a 0.50004997 0.4999148 0 0 0 -0.498 -0.3456 z" fill="#0e1e40" transform="matrix(6.7826762199401855, 0, 0, 6.7826762199401855, 150.21359252929688, -6847.21044921875)" color="rgb(0, 0, 0)" text-decoration="none solid rgb(0, 0, 0)" letter-spacing="normal" word-spacing="normal" direction="ltr" writing-mode="lr-tb" baseline-shift="baseline" text-anchor="start" clip-rule="nonzero" display="inline" overflow="visible" visibility="visible" opacity="1" color-interpolation="srgb" color-interpolation-filters="linearrgb" fill-opacity="1" fill-rule="nonzero" stroke="none" stroke-width="1" stroke-linecap="round" stroke-linejoin="round" stroke-miterlimit="4" stroke-dasharray="none" stroke-dashoffset="0" stroke-opacity="1" color-rendering="auto" image-rendering="auto" shape-rendering="auto" text-rendering="auto" style="font: medium sans-serif; text-indent: 0px; text-align: start; text-transform: none; white-space: normal; isolation: auto; mix-blend-mode: normal;" />
    <path id="_G2KTZoLS2N0Lt4IxG2Glj" d="m 17.0978 1038.3046 a 0.50005 0.49991483 0 0 0 -0.022 0.9959 c 2.7081 0.3333 5.0294 1.8961 6.1738 4.1199 a 0.50005 0.49991483 0 1 0 0.8887 -0.4569 c -1.3083 -2.5422 -3.9261 -4.2838 -6.9414 -4.655 a 0.50005 0.49991483 0 0 0 -0.1 0 z" fill="#0e1e40" transform="matrix(-2.424461004611393, 6.334562774308956, -6.334562774308956, -2.424461004611393, 6923.734955795355, 2621.577595983562)" color="rgb(0, 0, 0)" text-decoration="none solid rgb(0, 0, 0)" letter-spacing="normal" word-spacing="normal" direction="ltr" writing-mode="lr-tb" baseline-shift="baseline" text-anchor="start" clip-rule="nonzero" display="inline" overflow="visible" visibility="visible" opacity="1" color-interpolation="srgb" color-interpolation-filters="linearrgb" fill-opacity="1" fill-rule="nonzero" stroke="none" stroke-width="1" stroke-linecap="round" stroke-linejoin="round" stroke-miterlimit="4" stroke-dasharray="none" stroke-dashoffset="0" stroke-opacity="1" color-rendering="auto" image-rendering="auto" shape-rendering="auto" text-rendering="auto" style="font: medium sans-serif; text-indent: 0px; text-align: start; text-transform: none; white-space: normal; isolation: auto; mix-blend-mode: normal;" />
    <path id="_YhHzF7fi1cfGJKVtDrjvV" d="m 21.8771 1030.3634 c -0.6751 0.028 -1.3421 0.2824 -1.875 0.7576 a 0.5000553 0.49992013 0 1 0 0.666 0.7459 c 0.7143 -0.637 1.7708 -0.6816 2.5351 -0.1055 0.7643 0.5762 1.0138 1.6044 0.5977 2.4661 -0.4161 0.8618 -1.3761 1.306 -2.3027 1.0662 -0.9267 -0.2398 -1.5506 -1.0928 -1.4961 -2.0483 a 0.50004997 0.4999148 0 1 0 -0.9981 -0.057 c -0.081 1.4254 0.8616 2.7156 2.2442 3.0734 1.3825 0.3577 2.8323 -0.3134 3.4531 -1.5992 0.6208 -1.2858 0.2438 -2.8386 -0.8965 -3.6982 -0.5702 -0.4299 -1.2527 -0.6292 -1.9277 -0.6014 z" fill="#0e1e40" transform="matrix(6.7826762199401855, 0, 0, 6.7826762199401855, 149.4613800048828, -6849.5830078125)" color="rgb(0, 0, 0)" text-decoration="none solid rgb(0, 0, 0)" letter-spacing="normal" word-spacing="normal" direction="ltr" writing-mode="lr-tb" baseline-shift="baseline" text-anchor="start" clip-rule="nonzero" display="inline" overflow="visible" visibility="visible" opacity="1" color-interpolation="srgb" color-interpolation-filters="linearrgb" fill-opacity="1" fill-rule="nonzero" stroke="none" stroke-width="1" stroke-linecap="round" stroke-linejoin="round" stroke-miterlimit="4" stroke-dasharray="none" stroke-dashoffset="0" stroke-opacity="1" color-rendering="auto" image-rendering="auto" shape-rendering="auto" text-rendering="auto" style="font: medium sans-serif; text-indent: 0px; text-align: start; text-transform: none; white-space: normal; isolation: auto; mix-blend-mode: normal;" />
    <path id="_pQPlvwvGw6th86SLJ9D1k" d="m 9.629 1030.3849 c -0.6739 0.084 -1.3199 0.3953 -1.8125 0.9177 a 0.5001556 0.5000204 0 1 0 0.7285 0.6854 c 0.6605 -0.7005 1.7171 -0.8333 2.5293 -0.3164 0.8123 0.517 1.1385 1.5305 0.7832 2.4252 -0.3553 0.8946 -1.2886 1.407 -2.2343 1.2261 -0.9458 -0.1807 -1.6231 -1.0016 -1.6231 -1.9642 a 0.50004997 0.4999148 0 1 0 -1 0 c 0 1.436 1.0247 2.6767 2.4356 2.9465 1.4108 0.2696 2.8215 -0.5048 3.3515 -1.8394 0.53 -1.3347 0.036 -2.8665 -1.1758 -3.6377 -0.6058 -0.3855 -1.3085 -0.5272 -1.9824 -0.4432 z" fill="#ff4500" transform="matrix(6.7826762199401855, 0, 0, 6.7826762199401855, 149.45504760742188, -6849.59033203125)" color="rgb(0, 0, 0)" text-decoration="none solid rgb(0, 0, 0)" letter-spacing="normal" word-spacing="normal" direction="ltr" writing-mode="lr-tb" baseline-shift="baseline" text-anchor="start" clip-rule="nonzero" display="inline" overflow="visible" visibility="visible" opacity="1" color-interpolation="srgb" color-interpolation-filters="linearrgb" fill-opacity="1" fill-rule="nonzero" stroke="none" stroke-width="1" stroke-linecap="round" stroke-linejoin="round" stroke-miterlimit="4" stroke-dasharray="none" stroke-dashoffset="0" stroke-opacity="1" color-rendering="auto" image-rendering="auto" shape-rendering="auto" text-rendering="auto" style="font: medium sans-serif; text-indent: 0px; text-align: start; text-transform: none; white-space: normal; isolation: auto; mix-blend-mode: normal;" />
    <path id="_qwXNWg-VCji4lBsWaJKrg" d="m 5.5079 1025.6108 a 0.50004997 0.4999148 0 0 0 -0.5078 0.4978 0.50004997 0.4999148 0 0 0 0 0.025 c 0 0 0 0.014 0 0.014 a 0.50004997 0.4999148 0 0 0 0 0.027 c 0 0.037 0.036 0.6998 0.1621 1.4957 0.065 0.4089 0.1529 0.8445 0.2793 1.2439 0.1264 0.3993 0.2729 0.7665 0.5625 1.0544 a 0.50004997 0.4999148 0 1 0 0.7051 -0.7088 c -0.072 -0.071 -0.2115 -0.321 -0.3144 -0.6463 -0.103 -0.3253 -0.1861 -0.7215 -0.2461 -1.0993 -0.06 -0.3773 -0.053 -0.4518 -0.076 -0.7147 0.4919 0.1745 0.9883 0.3787 1.6074 0.4764 2.0418 0.3227 4.0063 -0.3084 5.6523 0.125 0.3185 0.084 0.9063 0.3848 1.3711 0.6619 0.4649 0.2771 0.8262 0.5253 0.8262 0.5253 a 0.50004997 0.4999148 0 0 0 0.5332 0.023 c 0 0 0.4548 -0.2625 1.0352 -0.5526 0.5804 -0.2901 1.3022 -0.6036 1.7207 -0.6971 1.6232 -0.3623 3.5102 0.2017 5.4824 -0.084 0.6342 -0.092 1.1759 -0.2978 1.6582 -0.4589 0 0.2394 0.013 0.2996 -0.033 0.6737 -0.044 0.3653 -0.1187 0.763 -0.2324 1.1266 a 0.50037422 0.50023897 0 0 0 0.9551 0.2987 c 0.1383 -0.4424 0.2198 -0.8943 0.2695 -1.3043 0.1014 -0.8189 0.074 -1.4821 0.074 -1.4821 a 0.50004997 0.4999148 0 0 0 -0.6641 -0.4529 c 0 0 -1.5208 0.5132 -2.1699 0.6072 -1.6704 0.242 -3.5902 -0.3417 -5.5586 0.098 -0.6156 0.1374 -1.3401 0.4746 -1.9492 0.7791 -0.4558 0.2278 -0.651 0.3414 -0.8144 0.4334 -0.1441 -0.097 -0.2722 -0.1864 -0.6211 -0.3945 -0.4964 -0.2959 -1.0843 -0.6265 -1.627 -0.7692 -2.0295 -0.5344 -4.0385 0.1262 -5.7519 -0.1445 -0.6465 -0.1021 -2.1661 -0.6502 -2.1661 -0.6502 l 0 0 a 0.50004997 0.4999148 0 0 0 -0.168 -0.033 z" fill="#0e1e40" transform="matrix(6.7826762199401855, 0, 0, 6.7826762199401855, 147.0098114013672, -6853.814453125)" color="rgb(0, 0, 0)" text-decoration="none solid rgb(0, 0, 0)" letter-spacing="normal" word-spacing="normal" direction="ltr" writing-mode="lr-tb" baseline-shift="baseline" text-anchor="start" clip-rule="nonzero" display="inline" overflow="visible" visibility="visible" opacity="1" color-interpolation="srgb" color-interpolation-filters="linearrgb" fill-opacity="1" fill-rule="evenodd" stroke="none" stroke-width="1px" stroke-linecap="round" stroke-linejoin="round" stroke-miterlimit="4" stroke-dasharray="none" stroke-dashoffset="0" stroke-opacity="1" color-rendering="auto" image-rendering="auto" shape-rendering="auto" text-rendering="auto" style="font: medium sans-serif; text-indent: 0px; text-align: start; text-transform: none; white-space: normal; isolation: auto; mix-blend-mode: normal;" />
    <path id="_8G5ammroIcZbYvBhTa9Ma" d="m 15.9864 1035.3581 a 0.50005 0.49991483 0 0 0 -0.3378 0.1426 l -1.75 1.7163 a 0.50005 0.49991483 0 0 0 -0.072 0.6229 l 1.75 2.7824 a 0.50005 0.49991483 0 0 0 0.8457 0 l 1.75 -2.7824 a 0.50005 0.49991483 0 0 0 -0.072 -0.6229 l -1.75 -1.7163 a 0.50005 0.49991483 0 0 0 -0.3633 -0.1426 z m 0.014 1.2009 1.1113 1.0895 -1.1132 1.769 -1.1114 -1.769 z" fill="#0e1e40" transform="matrix(6.7826762199401855, 0, 0, 6.7826762199401855, 151.02426147460938, -6849.56591796875)" color="rgb(0, 0, 0)" text-decoration="none solid rgb(0, 0, 0)" letter-spacing="normal" word-spacing="normal" direction="ltr" writing-mode="lr-tb" baseline-shift="baseline" text-anchor="start" clip-rule="nonzero" display="inline" overflow="visible" visibility="visible" opacity="1" color-interpolation="srgb" color-interpolation-filters="linearrgb" fill-opacity="1" fill-rule="evenodd" stroke="none" stroke-width="1px" stroke-linecap="round" stroke-linejoin="round" stroke-miterlimit="4" stroke-dasharray="none" stroke-dashoffset="0" stroke-opacity="1" color-rendering="auto" image-rendering="auto" shape-rendering="auto" text-rendering="auto" style="font: medium sans-serif; text-indent: 0px; text-align: start; text-transform: none; white-space: normal; isolation: auto; mix-blend-mode: normal;" />
  </g>
  <path id="_v8w8s5olMWjEoPGl3q7DI" fill="#0e1e40" transform="matrix(0.45512787681530037, 0, 0, 0.45512787681530037, 253.8073703888786, 346.2648795777505)" text="Richard Clark" text-anchor="middle" font-size="100" letter-spacing="0" side="left" offset="0.5" dx="0" dy="0" space="preserve" href="" font-family="Montserrat" font-scale="contain" x="0" y="0" font-weight="700" data-fl-textpath="" d="M-283.00000000000006 0L-300.4000000000001 0L-313.9000000000001-19.5L-314.70000000000005-19.5L-328.80000000000007-19.5L-328.80000000000007 0L-345.00000000000006 0L-345.00000000000006-70L-314.70000000000005-70Q-305.4000000000001-70 -298.55000000000007-66.9Q-291.70000000000005-63.8 -288.00000000000006-58.1Q-284.30000000000007-52.4 -284.30000000000007-44.6L-284.30000000000007-44.6Q-284.30000000000007-36.8 -288.05000000000007-31.15Q-291.80000000000007-25.5 -298.70000000000005-22.5L-298.70000000000005-22.5L-283.00000000000006 0ZM-300.70000000000005-44.6Q-300.70000000000005-50.5 -304.50000000000006-53.65Q-308.30000000000007-56.8 -315.6000000000001-56.8L-315.6000000000001-56.8L-328.80000000000007-56.8L-328.80000000000007-32.4L-315.6000000000001-32.4Q-308.30000000000007-32.4 -304.50000000000006-35.6Q-300.70000000000005-38.8 -300.70000000000005-44.6L-300.70000000000005-44.6ZM-272.6000000000001 0L-272.6000000000001-53.8L-257.00000000000006-53.8L-257.00000000000006 0L-272.6000000000001 0ZM-264.80000000000007-61.3Q-269.1000000000001-61.3 -271.80000000000007-63.8Q-274.50000000000006-66.3 -274.50000000000006-70L-274.50000000000006-70Q-274.50000000000006-73.7 -271.80000000000007-76.2Q-269.1000000000001-78.7 -264.80000000000007-78.7L-264.80000000000007-78.7Q-260.50000000000006-78.7 -257.80000000000007-76.3Q-255.10000000000008-73.9 -255.10000000000008-70.3L-255.10000000000008-70.3Q-255.10000000000008-66.4 -257.80000000000007-63.85Q-260.50000000000006-61.3 -264.80000000000007-61.3L-264.80000000000007-61.3ZM-216.50000000000006 0.8Q-225.10000000000008 0.8 -231.95000000000007-2.75Q-238.80000000000007-6.3 -242.65000000000006-12.6Q-246.50000000000009-18.9 -246.50000000000009-26.9L-246.50000000000009-26.9Q-246.50000000000009-34.9 -242.65000000000006-41.2Q-238.80000000000007-47.5 -231.95000000000007-51.05Q-225.10000000000008-54.6 -216.50000000000006-54.6L-216.50000000000006-54.6Q-208.00000000000006-54.6 -201.6500000000001-51.05Q-195.30000000000007-47.5 -192.4000000000001-40.9L-192.4000000000001-40.9L-204.50000000000006-34.4Q-208.70000000000007-41.8 -216.60000000000008-41.8L-216.60000000000008-41.8Q-222.70000000000007-41.8 -226.70000000000007-37.8Q-230.70000000000007-33.8 -230.70000000000007-26.9L-230.70000000000007-26.9Q-230.70000000000007-20 -226.70000000000007-16Q-222.70000000000007-12 -216.60000000000008-12L-216.60000000000008-12Q-208.60000000000008-12 -204.50000000000006-19.4L-204.50000000000006-19.4L-192.4000000000001-12.8Q-195.30000000000007-6.4 -201.6500000000001-2.8Q-208.00000000000006 0.8 -216.50000000000006 0.8L-216.50000000000006 0.8ZM-151.10000000000005-54.6Q-141.10000000000005-54.6 -134.95000000000005-48.6Q-128.80000000000007-42.6 -128.80000000000007-30.8L-128.80000000000007-30.8L-128.80000000000007 0L-144.40000000000006 0L-144.40000000000006-28.4Q-144.40000000000006-34.8 -147.20000000000005-37.95Q-150.00000000000006-41.1 -155.30000000000007-41.1L-155.30000000000007-41.1Q-161.20000000000005-41.1 -164.70000000000005-37.45Q-168.20000000000005-33.8 -168.20000000000005-26.6L-168.20000000000005-26.6L-168.20000000000005 0L-183.80000000000007 0L-183.80000000000007-74.2L-168.20000000000005-74.2L-168.20000000000005-48.2Q-165.10000000000005-51.3 -160.70000000000005-52.95Q-156.30000000000007-54.6 -151.10000000000005-54.6L-151.10000000000005-54.6ZM-93.00000000000003-54.6Q-80.50000000000003-54.6 -73.80000000000004-48.65Q-67.10000000000004-42.7 -67.10000000000004-30.7L-67.10000000000004-30.7L-67.10000000000004 0L-81.70000000000003 0L-81.70000000000003-6.7Q-86.10000000000004 0.8 -98.10000000000004 0.8L-98.10000000000004 0.8Q-104.30000000000004 0.8 -108.85000000000004-1.3Q-113.40000000000003-3.4 -115.80000000000004-7.1Q-118.20000000000003-10.8 -118.20000000000003-15.5L-118.20000000000003-15.5Q-118.20000000000003-23 -112.55000000000004-27.3Q-106.90000000000003-31.6 -95.10000000000004-31.6L-95.10000000000004-31.6L-82.70000000000003-31.6Q-82.70000000000003-36.7 -85.80000000000004-39.45Q-88.90000000000003-42.2 -95.10000000000004-42.2L-95.10000000000004-42.2Q-99.40000000000003-42.2 -103.55000000000004-40.85Q-107.70000000000003-39.5 -110.60000000000004-37.2L-110.60000000000004-37.2L-116.20000000000003-48.1Q-111.80000000000004-51.2 -105.65000000000003-52.9Q-99.50000000000003-54.6 -93.00000000000003-54.6L-93.00000000000003-54.6ZM-94.20000000000003-9.7Q-90.20000000000003-9.7 -87.10000000000004-11.55Q-84.00000000000003-13.4 -82.70000000000003-17L-82.70000000000003-17L-82.70000000000003-22.5L-93.40000000000003-22.5Q-103.00000000000003-22.5 -103.00000000000003-16.2L-103.00000000000003-16.2Q-103.00000000000003-13.2 -100.65000000000003-11.45Q-98.30000000000004-9.7 -94.20000000000003-9.7L-94.20000000000003-9.7ZM-38.100000000000044-46.7Q-35.30000000000005-50.6 -30.550000000000047-52.6Q-25.800000000000047-54.6 -19.600000000000044-54.6L-19.600000000000044-54.6L-19.600000000000044-40.2Q-22.200000000000045-40.4 -23.100000000000044-40.4L-23.100000000000044-40.4Q-29.800000000000047-40.4 -33.600000000000044-36.65Q-37.40000000000005-32.9 -37.40000000000005-25.4L-37.40000000000005-25.4L-37.40000000000005 0L-53.00000000000004 0L-53.00000000000004-53.8L-38.100000000000044-53.8L-38.100000000000044-46.7ZM 28.399999999999956-74.2L 43.99999999999996-74.2L 43.99999999999996 0L 29.09999999999996 0L 29.09999999999996-6.2Q 23.299999999999955 0.8  12.299999999999958 0.8L 12.299999999999958 0.8Q 4.699999999999957 0.8 -1.450000000000042-2.6Q-7.600000000000042-6 -11.100000000000042-12.3Q-14.600000000000042-18.6 -14.600000000000042-26.9L-14.600000000000042-26.9Q-14.600000000000042-35.2 -11.100000000000042-41.5Q-7.600000000000042-47.8 -1.450000000000042-51.2Q 4.699999999999957-54.6  12.299999999999958-54.6L 12.299999999999958-54.6Q 22.59999999999996-54.6  28.399999999999956-48.1L 28.399999999999956-48.1L 28.399999999999956-74.2ZM 14.999999999999957-12Q 20.899999999999956-12  24.799999999999955-16.05Q 28.69999999999996-20.1  28.69999999999996-26.9L 28.69999999999996-26.9Q 28.69999999999996-33.7  24.799999999999955-37.75Q 20.899999999999956-41.8  14.999999999999957-41.8L 14.999999999999957-41.8Q 8.999999999999957-41.8  5.099999999999959-37.75Q 1.1999999999999567-33.7  1.1999999999999567-26.9L 1.1999999999999567-26.9Q 1.1999999999999567-20.1  5.099999999999959-16.05Q 8.999999999999957-12  14.999999999999957-12L 14.999999999999957-12ZM 121.29999999999994 1.2Q 110.59999999999994 1.2  101.94999999999995-3.45Q 93.29999999999994-8.1  88.34999999999994-16.35Q 83.39999999999995-24.6  83.39999999999995-35L 83.39999999999995-35Q 83.39999999999995-45.4  88.34999999999994-53.65Q 93.29999999999994-61.9  101.94999999999995-66.55Q 110.59999999999994-71.2  121.39999999999995-71.2L 121.39999999999995-71.2Q 130.49999999999994-71.2  137.84999999999994-68Q 145.19999999999993-64.8  150.19999999999993-58.8L 150.19999999999993-58.8L 139.79999999999995-49.2Q 132.69999999999993-57.4  122.19999999999995-57.4L 122.19999999999995-57.4Q 115.69999999999995-57.4  110.59999999999994-54.55Q 105.49999999999994-51.7  102.64999999999995-46.6Q 99.79999999999994-41.5  99.79999999999994-35L 99.79999999999994-35Q 99.79999999999994-28.5  102.64999999999995-23.4Q 105.49999999999994-18.3  110.59999999999994-15.45Q 115.69999999999995-12.6  122.19999999999995-12.6L 122.19999999999995-12.6Q 132.69999999999993-12.6  139.79999999999995-20.9L 139.79999999999995-20.9L 150.19999999999993-11.3Q 145.19999999999993-5.2  137.79999999999995-2Q 130.39999999999995 1.2  121.29999999999994 1.2L 121.29999999999994 1.2ZM 159.99999999999994 0L 159.99999999999994-74.2L 175.59999999999997-74.2L 175.59999999999997 0L 159.99999999999994 0ZM 211.79999999999995-54.6Q 224.29999999999995-54.6  230.99999999999994-48.65Q 237.69999999999993-42.7  237.69999999999993-30.7L 237.69999999999993-30.7L 237.69999999999993 0L 223.09999999999997 0L 223.09999999999997-6.7Q 218.69999999999993 0.8  206.69999999999996 0.8L 206.69999999999996 0.8Q 200.49999999999994 0.8  195.94999999999996-1.3Q 191.39999999999995-3.4  188.99999999999994-7.1Q 186.59999999999994-10.8  186.59999999999994-15.5L 186.59999999999994-15.5Q 186.59999999999994-23  192.24999999999994-27.3Q 197.89999999999995-31.6  209.69999999999996-31.6L 209.69999999999996-31.6L 222.09999999999997-31.6Q 222.09999999999997-36.7  218.99999999999994-39.45Q 215.89999999999995-42.2  209.69999999999996-42.2L 209.69999999999996-42.2Q 205.39999999999995-42.2  201.24999999999994-40.85Q 197.09999999999994-39.5  194.19999999999996-37.2L 194.19999999999996-37.2L 188.59999999999994-48.1Q 192.99999999999994-51.2  199.14999999999995-52.9Q 205.29999999999995-54.6  211.79999999999995-54.6L 211.79999999999995-54.6ZM 210.59999999999994-9.7Q 214.59999999999994-9.7  217.69999999999993-11.55Q 220.79999999999995-13.4  222.09999999999997-17L 222.09999999999997-17L 222.09999999999997-22.5L 211.39999999999995-22.5Q 201.79999999999995-22.5  201.79999999999995-16.2L 201.79999999999995-16.2Q 201.79999999999995-13.2  204.14999999999995-11.45Q 206.49999999999994-9.7  210.59999999999994-9.7L 210.59999999999994-9.7ZM 266.7-46.7Q 269.5-50.6  274.25-52.6Q 279-54.6  285.2-54.6L 285.2-54.6L 285.2-40.2Q 282.6-40.4  281.7-40.4L 281.7-40.4Q 275-40.4  271.2-36.65Q 267.4-32.9  267.4-25.4L 267.4-25.4L 267.4 0L 251.79999999999998 0L 251.79999999999998-53.8L 266.7-53.8L 266.7-46.7ZM 334.59999999999997 0L 317.59999999999997-21.1L 310.09999999999997-13.7L 310.09999999999997 0L 294.49999999999994 0L 294.49999999999994-74.2L 310.09999999999997-74.2L 310.09999999999997-32.2L 332.9-53.8L 351.49999999999994-53.8L 329.09999999999997-31L 353.49999999999994 0L 334.59999999999997 0Z" />
  <path id="_w_ZpSSBLuZgb0FATC10kO" fill="#0e1e40" transform="matrix(0.516681505782138, 0, 0, 0.516681505782138, 126.24328671018202, 412.68128862316047)" text="nz" text-anchor="middle" font-size="100" letter-spacing="0" side="left" offset="0.5" dx="0" dy="0" space="preserve" href="" font-family="Montserrat" font-scale="contain" x="0" y="0" data-fl-textpath="" d="M-22.700000000000003-53Q-12.800000000000004-53 -6.950000000000003-47.25Q-1.1000000000000085-41.5 -1.1000000000000085-30.5L-1.1000000000000085-30.5L-1.1000000000000085 0L-8.200000000000003 0L-8.200000000000003-29.8Q-8.200000000000003-38 -12.300000000000004-42.3Q-16.400000000000006-46.6 -24.000000000000007-46.6L-24.000000000000007-46.6Q-32.50000000000001-46.6 -37.45-41.55Q-42.400000000000006-36.5 -42.400000000000006-27.6L-42.400000000000006-27.6L-42.400000000000006 0L-49.50000000000001 0L-49.50000000000001-52.6L-42.7-52.6L-42.7-42.9Q-39.800000000000004-47.7 -34.650000000000006-50.35Q-29.500000000000007-53 -22.700000000000003-53L-22.700000000000003-53ZM 21.599999999999994-5.9L 55.3-5.9L 55.3 0L 12.499999999999993 0L 12.499999999999993-4.7L 45.599999999999994-46.6L 13.099999999999994-46.6L 13.099999999999994-52.6L 54.69999999999999-52.6L 54.69999999999999-47.9L 21.599999999999994-5.9Z" />
  <path id="_w_ZpSSBLuZgb0FATC10kO" fill="#ff4500" transform="matrix(0.557561244117748, 0, 0, 0.5166815057821379, 285.42449699130356, 412.68128862316047)" text="webApps" text-anchor="middle" font-size="100" letter-spacing="0" side="left" offset="0.5" dx="0" dy="0" space="preserve" href="" font-family="Montserrat" font-scale="contain" x="0" y="0" data-fl-textpath="" d="M-154.45000000000002-52.6L-147.95000000000002-52.6L-167.85000000000002 0L-174.55 0L-191.15-43.1L-207.75 0L-214.45000000000002 0L-234.25-52.6L-227.45000000000002-52.6L-210.95000000000002-7.9L-194.05-52.6L-187.95000000000002-52.6L-171.15-7.9L-154.45000000000002-52.6ZM-92.85000000000001-26.3L-92.95-24.1L-136.95000000000002-24.1Q-136.35-15.9 -130.65-10.85Q-124.95-5.8 -116.25-5.8L-116.25-5.8Q-111.35000000000001-5.8 -107.25-7.55Q-103.15-9.3 -100.15-12.7L-100.15-12.7L-96.15-8.1Q-99.65-3.9 -104.9-1.7Q-110.15 0.5 -116.45 0.5L-116.45 0.5Q-124.55000000000001 0.5 -130.8-2.95Q-137.05-6.4 -140.55-12.5Q-144.05-18.6 -144.05-26.3L-144.05-26.3Q-144.05-34 -140.70000000000002-40.1Q-137.35-46.2 -131.5-49.6Q-125.65-53 -118.35000000000001-53L-118.35000000000001-53Q-111.05000000000001-53 -105.25-49.6Q-99.45-46.2 -96.15-40.15Q-92.85000000000001-34.1 -92.85000000000001-26.3L-92.85000000000001-26.3ZM-118.35000000000001-46.9Q-125.95-46.9 -131.1-42.05Q-136.25-37.2 -136.95000000000002-29.4L-136.95000000000002-29.4L-99.65-29.4Q-100.35000000000001-37.2 -105.5-42.05Q-110.65-46.9 -118.35000000000001-46.9L-118.35000000000001-46.9ZM-51.25-53Q-43.85-53 -37.85-49.65Q-31.85-46.3 -28.450000000000003-40.2Q-25.049999999999997-34.1 -25.049999999999997-26.3L-25.049999999999997-26.3Q-25.049999999999997-18.5 -28.450000000000003-12.4Q-31.85-6.3 -37.85-2.9Q-43.85 0.5 -51.25 0.5L-51.25 0.5Q-57.85 0.5 -63.1-2.3Q-68.35-5.1 -71.55-10.4L-71.55-10.4L-71.55 0L-78.35 0L-78.35-74.2L-71.25-74.2L-71.25-42.6Q-67.95-47.7 -62.8-50.35Q-57.65-53 -51.25-53L-51.25-53ZM-51.75-5.8Q-46.25-5.8 -41.75-8.35Q-37.25-10.9 -34.7-15.6Q-32.15-20.3 -32.15-26.3L-32.15-26.3Q-32.15-32.3 -34.7-37Q-37.25-41.7 -41.75-44.25Q-46.25-46.8 -51.75-46.8L-51.75-46.8Q-57.35-46.8 -61.8-44.25Q-66.25-41.7 -68.8-37Q-71.35-32.3 -71.35-26.3L-71.35-26.3Q-71.35-20.3 -68.8-15.6Q-66.25-10.9 -61.8-8.35Q-57.35-5.8 -51.75-5.8L-51.75-5.8ZM 42.55 0L 34.14999999999999-18.7L-4.850000000000005-18.7L-13.250000000000005 0L-20.950000000000006 0L 11.049999999999997-70L 18.349999999999994-70L 50.349999999999994 0L 42.55 0ZM-2.1500000000000057-24.7L 31.449999999999996-24.7L 14.649999999999991-62.3L-2.1500000000000057-24.7ZM 87.54999999999998-53Q 94.94999999999999-53  100.94999999999999-49.65Q 106.94999999999999-46.3  110.35-40.2Q 113.75-34.1  113.75-26.3L 113.75-26.3Q 113.75-18.4  110.35-12.3Q 106.94999999999999-6.2  101-2.85Q 95.04999999999998 0.5  87.54999999999998 0.5L 87.54999999999998 0.5Q 81.14999999999999 0.5  75.99999999999999-2.15Q 70.85-4.8  67.54999999999998-9.9L 67.54999999999998-9.9L 67.54999999999998 19.4L 60.44999999999999 19.4L 60.44999999999999-52.6L 67.24999999999999-52.6L 67.24999999999999-42.2Q 70.44999999999999-47.4  75.69999999999999-50.2Q 80.94999999999999-53  87.54999999999998-53L 87.54999999999998-53ZM 87.04999999999998-5.8Q 92.54999999999998-5.8  97.04999999999998-8.35Q 101.54999999999998-10.9  104.1-15.6Q 106.64999999999999-20.3  106.64999999999999-26.3L 106.64999999999999-26.3Q 106.64999999999999-32.3  104.1-36.95Q 101.54999999999998-41.6  97.04999999999998-44.2Q 92.54999999999998-46.8  87.04999999999998-46.8L 87.04999999999998-46.8Q 81.44999999999999-46.8  76.99999999999999-44.2Q 72.54999999999998-41.6  69.99999999999999-36.95Q 67.44999999999999-32.3  67.44999999999999-26.3L 67.44999999999999-26.3Q 67.44999999999999-20.3  69.99999999999999-15.6Q 72.54999999999998-10.9  76.99999999999999-8.35Q 81.44999999999999-5.8  87.04999999999998-5.8L 87.04999999999998-5.8ZM 155.35-53Q 162.75-53  168.75-49.65Q 174.75-46.3  178.14999999999998-40.2Q 181.55-34.1  181.55-26.3L 181.55-26.3Q 181.55-18.4  178.14999999999998-12.3Q 174.75-6.2  168.8-2.85Q 162.85 0.5  155.35 0.5L 155.35 0.5Q 148.95 0.5  143.79999999999998-2.15Q 138.65-4.8  135.35-9.9L 135.35-9.9L 135.35 19.4L 128.25 19.4L 128.25-52.6L 135.04999999999998-52.6L 135.04999999999998-42.2Q 138.25-47.4  143.5-50.2Q 148.75-53  155.35-53L 155.35-53ZM 154.85-5.8Q 160.35-5.8  164.85-8.35Q 169.35-10.9  171.89999999999998-15.6Q 174.45-20.3  174.45-26.3L 174.45-26.3Q 174.45-32.3  171.89999999999998-36.95Q 169.35-41.6  164.85-44.2Q 160.35-46.8  154.85-46.8L 154.85-46.8Q 149.25-46.8  144.79999999999998-44.2Q 140.35-41.6  137.79999999999998-36.95Q 135.25-32.3  135.25-26.3L 135.25-26.3Q 135.25-20.3  137.79999999999998-15.6Q 140.35-10.9  144.79999999999998-8.35Q 149.25-5.8  154.85-5.8L 154.85-5.8ZM 210.14999999999998 0.5Q 203.74999999999997 0.5  197.89999999999998-1.35Q 192.04999999999998-3.2  188.74999999999997-6L 188.74999999999997-6L 191.95-11.6Q 195.24999999999997-9  200.24999999999997-7.35Q 205.24999999999997-5.7  210.64999999999998-5.7L 210.64999999999998-5.7Q 217.84999999999997-5.7  221.29999999999998-7.95Q 224.74999999999997-10.2  224.74999999999997-14.3L 224.74999999999997-14.3Q 224.74999999999997-17.2  222.84999999999997-18.85Q 220.95-20.5  218.04999999999998-21.35Q 215.14999999999998-22.2  210.34999999999997-23L 210.34999999999997-23Q 203.95-24.2  200.04999999999998-25.45Q 196.14999999999998-26.7  193.39999999999998-29.7Q 190.64999999999998-32.7  190.64999999999998-38L 190.64999999999998-38Q 190.64999999999998-44.6  196.14999999999998-48.8Q 201.64999999999998-53  211.45-53L 211.45-53Q 216.54999999999998-53  221.64999999999998-51.65Q 226.74999999999997-50.3  230.04999999999998-48.1L 230.04999999999998-48.1L 226.95-42.4Q 220.45-46.9  211.45-46.9L 211.45-46.9Q 204.64999999999998-46.9  201.2-44.5Q 197.74999999999997-42.1  197.74999999999997-38.2L 197.74999999999997-38.2Q 197.74999999999997-35.2  199.7-33.4Q 201.64999999999998-31.6  204.54999999999998-30.75Q 207.45-29.9  212.54999999999998-29L 212.54999999999998-29Q 218.84999999999997-27.8  222.64999999999998-26.6Q 226.45-25.4  229.14999999999998-22.5Q 231.84999999999997-19.6  231.84999999999997-14.5L 231.84999999999997-14.5Q 231.84999999999997-7.6  226.09999999999997-3.55Q 220.34999999999997 0.5  210.14999999999998 0.5L 210.14999999999998 0.5Z" />
</svg>